# xmcd
#
# Track frame offsets: 
#        150
#        19076
#        39152
#        59071
#        80177
#        111645
#        132357
#        149790
#        168590
#        191293
#        210735
#        227541
#        243580
#        259927
#
# Disc length: 3946 seconds
#
# Revision: 3
# Processed by: cddbd v1.4PL0 Copyright (c) Steve Scherf et al.
# Submitted via: ExactAudioCopy v0.90b4
#
DISCID=d60f680e
DTITLE=Sergio Cammariere - Dalla Pace Del Mare Lontano
DYEAR=1900
DGENRE=
TTITLE0=Tutto quello che un uomo
TTITLE1=Sorella mia
TTITLE2=Tempo perduto
TTITLE3=Via da questo mare
TTITLE4=Cambiamenti del mondo
TTITLE5=Dalla pace del mare lontano
TTITLE6=Apri la porta
TTITLE7=Canto nel vento
TTITLE8=Le porte del sogno
TTITLE9=Il mare
TTITLE10=Per ricordarmi di te
TTITLE11=Paese di goal
TTITLE12=Vita d'artista
TTITLE13=Cantautore piccolino
EXTD=
EXTT0=
EXTT1=
EXTT2=
EXTT3=
EXTT4=
EXTT5=
EXTT6=
EXTT7=
EXTT8=
EXTT9=
EXTT10=
EXTT11=
EXTT12=
EXTT13=
PLAYORDER=
